<?xml version="1.0" encoding="UTF-8"?>
<svg id="Camada_2" data-name="Camada 2" xmlns="http://www.w3.org/2000/svg" xmlns:xlink="http://www.w3.org/1999/xlink" viewBox="0 0 692.92 523.18">
  <defs>
    <style>
      .cls-1 {
        fill: #fff4e9;
      }

      .cls-1, .cls-2, .cls-3, .cls-4, .cls-5, .cls-6, .cls-7, .cls-8, .cls-9, .cls-10 {
        stroke-width: 0px;
      }

      .cls-2 {
        fill: #fff3e9;
      }

      .cls-3 {
        fill: #f9f9f9;
      }

      .cls-4 {
        fill: #fffbe9;
      }

      .cls-5 {
        fill: #e0c1a0;
      }

      .cls-11 {
        fill: none;
        stroke: #000;
        stroke-miterlimit: 10;
      }

      .cls-6 {
        fill: #e0ddce;
      }

      .cls-7, .cls-12 {
        fill: #c9a06f;
      }

      .cls-13 {
        clip-path: url(#clippath);
      }

      .cls-8 {
        fill: #4f2700;
        opacity: .32;
      }

      .cls-9 {
        fill: #aa763d;
      }

      .cls-10 {
        fill: #1d1d1b;
        opacity: .43;
      }
    </style>
    <clipPath id="clippath">
      <path class="cls-7" d="M404.9,43.46c-3.65-.25-7.33-.38-11.04-.38-90.02,0-162.98,74.51-162.98,166.42,0,100.12,88.93,164,162.98,166.42,23.4.77,44.01-4.65,60.54-11.6.41-.17.82-.36,1.24-.53,17.12-7.37,29.73-16.28,36.34-21.4,3.22-2.49,64.84-52.9,64.84-132.88,0-88.12-67.06-160.24-151.92-166.05ZM496.73,218.49c-10.75,14.03-25.1,11.49-48.41,25-9.55,5.55-17.03,11.72-23,17.89-7.58,7.83-13.41,16.74-17.56,26.2l-15.92,42.26-9.9-40.47c-3.23-9.71-8.18-18.99-15-27.3-5.35-6.55-12.22-13.19-21.22-19.37-21.93-15.03-36.48-13.44-45.86-28.15-11.93-18.73-5.53-48.27,11.87-54.68,19.91-7.32,49.72,17.26,62.97,31.95,10.9,12.07,17.32,31.79,20.41,51.26l-.27-7.93c-1.45-25.4-12.9-49.35-32.2-66.21-.13-.12-.27-.23-.4-.35l-18.47-16.97c-6.84-7.08-11.95-17.5-11.28-29.06,1.03-17.75,13.52-32.16,28.99-33.43,16.14-1.32,30.13,16.68,33.27,35.14.27,1.59.47,3.18.57,4.76l-.13-3.99v-.39c0-20.69,15.24-37.31,33.54-35.9,15.57,1.2,28.16,15.72,29.13,33.59.64,11.7-4.21,20.54-11.23,27.61l-21.29,20.93c-3.6,3.54-6.75,7.51-9.2,11.91-4.49,8.06-7.74,17.05-10.19,26.1-2.46,9.06-4.12,18.19-5.47,26.5,5.06-17.42,12.9-34.26,23.82-44.56,14.63-13.76,46.69-36.26,65.83-27.63,16.74,7.54,20.29,37.42,6.6,55.29Z"/>
    </clipPath>
  </defs>
  <g id="Camada_6" data-name="Camada 6">
    <path class="cls-10" d="M553.51,283.88l-12.93-4.61-80.7-28.76-14.58-5.2-42.86-15.27-.27-.1-.09-.03-.64-.23-6.43-2.29-.99-.35-2.28-.82-.23-.08-97.73-34.83-11.56-4.12-46.84-16.69-12.42-4.43-27.64-9.85L0,523.18h456.01c42.11-77.21,83.61-153.29,106.8-195.83,9.92-18.17,16.49-30.22,18.34-33.62l-27.64-9.85Z"/>
  </g>
  <g id="Camada_3" data-name="Camada 3">
    <path class="cls-6" d="M652.93,185.63c-.46,0-.92-.02-1.38-.02h-66.38v54.98c2.85-.53,6.24.76,6.15,3.86-.02.57-.07,1.14-.13,1.71,1.62.71,2.43,2.15,2.45,3.61.08.31.14.66.13,1.07-.03,1.14-.13,2.05-.37,2.98h58.15c.46,0,.92,0,1.38-.02,22.21-.6,39.99-15.63,39.99-34.09s-17.78-33.48-39.99-34.09Z"/>
    <path class="cls-3" d="M650.27,250.62c.46,0,.92-.01,1.38-.02v.02h-1.38Z"/>
    <path class="cls-3" d="M692.92,215.23c0,18.45-17.78,33.48-39.99,34.09-.46,0-.92.02-1.38.02h-66.38v-68.21h66.38c.46,0,.92,0,1.38.02,22.21.6,39.99,15.62,39.99,34.09Z"/>
    <path class="cls-3" d="M650.27,245.17c.46,0,.92-.01,1.38-.02v.02h-1.38Z"/>
  </g>
  <g id="Camada_2-2" data-name="Camada 2">
    <path class="cls-3" d="M393.61,0c-113.18,0-204.93,93.7-204.93,209.26s91.75,209.26,204.93,209.26,204.93-93.69,204.93-209.26S506.79,0,393.61,0ZM393.61,388.75c-97.08,0-175.77-80.37-175.77-179.49S296.53,29.78,393.61,29.78s175.77,80.36,175.77,179.48-78.69,179.49-175.77,179.49Z"/>
    <path class="cls-6" d="M393.61,29.78c-97.08,0-175.77,80.36-175.77,179.48s78.69,179.49,175.77,179.49,175.77-80.37,175.77-179.49S490.69,29.78,393.61,29.78ZM491.98,342.39c-6.61,5.12-19.22,14.04-36.34,21.4-.42.18-.83.37-1.24.53-16.53,6.95-37.14,12.37-60.54,11.6-74.05-2.42-162.98-66.3-162.98-166.42,0-91.91,72.96-166.42,162.98-166.42,3.71,0,7.39.13,11.04.38,84.86,5.81,151.92,77.93,151.92,166.05,0,79.98-61.62,130.39-64.84,132.88Z"/>
    <g>
      <path class="cls-12" d="M404.9,43.46c-3.65-.25-7.33-.38-11.04-.38-90.02,0-162.98,74.51-162.98,166.42,0,100.12,88.93,164,162.98,166.42,23.4.77,44.01-4.65,60.54-11.6.41-.17.82-.36,1.24-.53,17.12-7.37,29.73-16.28,36.34-21.4,3.22-2.49,64.84-52.9,64.84-132.88,0-88.12-67.06-160.24-151.92-166.05ZM496.73,218.49c-10.75,14.03-25.1,11.49-48.41,25-9.55,5.55-17.03,11.72-23,17.89-7.58,7.83-13.41,16.74-17.56,26.2l-15.92,42.26-9.9-40.47c-3.23-9.71-8.18-18.99-15-27.3-5.35-6.55-12.22-13.19-21.22-19.37-21.93-15.03-36.48-13.44-45.86-28.15-11.93-18.73-5.53-48.27,11.87-54.68,19.91-7.32,49.72,17.26,62.97,31.95,10.9,12.07,17.32,31.79,20.41,51.26l-.27-7.93c-1.45-25.4-12.9-49.35-32.2-66.21-.13-.12-.27-.23-.4-.35l-18.47-16.97c-6.84-7.08-11.95-17.5-11.28-29.06,1.03-17.75,13.52-32.16,28.99-33.43,16.14-1.32,30.13,16.68,33.27,35.14.27,1.59.47,3.18.57,4.76l-.13-3.99v-.39c0-20.69,15.24-37.31,33.54-35.9,15.57,1.2,28.16,15.72,29.13,33.59.64,11.7-4.21,20.54-11.23,27.61l-21.29,20.93c-3.6,3.54-6.75,7.51-9.2,11.91-4.49,8.06-7.74,17.05-10.19,26.1-2.46,9.06-4.12,18.19-5.47,26.5,5.06-17.42,12.9-34.26,23.82-44.56,14.63-13.76,46.69-36.26,65.83-27.63,16.74,7.54,20.29,37.42,6.6,55.29Z"/>
      <g class="cls-13">
        <path class="cls-2" d="M478.97,68.69s-18.05-12.26-18.04-12.27c18.96,3.7,53.61,31.28,68.89,50.49,46.5,58.45,60.49,166.19-15.39,233.59-69.67,61.87-176.37,57.41-237.54-9.73-2.52-2.77-32.81-39.21-35.11-42.1,0,0,71.14,55.36,93.97,62.77l4.22,1.37c41.77,8.64,62.3,7.38,73.49.33,12.87-8.1,13.35-13.15,28.97-39.65,10.5-17.81,14.34-22.89,29.27-31.49,36.34-20.94,35.42-11.64,50.2-31.69,9.04-12.28,37.31-42.86,18.97-100.4-2.47-7.76-5.59-15.3-9.27-22.55-7.52-14.81-17.82-28.04-30.35-39.04l-22.28-19.62Z"/>
      </g>
    </g>
    <line class="cls-11" x1="455.72" y1="363.78" x2="455.64" y2="363.79"/>
    <path class="cls-5" d="M509.34,225.14c-12.14,15.85-28.35,12.98-54.69,28.24-10.79,6.27-19.24,13.24-25.98,20.21-8.56,8.84-15.15,18.92-19.84,29.6l-17.98,47.73-11.18-45.72c-3.65-10.96-9.24-21.45-16.94-30.84-6.04-7.39-13.8-14.9-23.97-21.88-24.77-16.97-41.21-15.18-51.8-31.8-13.48-21.16-2.02-57.22,16.6-66.81,16.98-8.74,45.62,4.64,60.59,21.24,12.31,13.64,28.08,15.11,31.57,37.1l-1.47,31.74c-1.64-28.7-14.57-55.74-36.37-74.79-.15-.13-.31-.26-.45-.39l-20.86-19.17c-7.73-8-13.5-19.76-12.74-32.82,1.16-20.05,15.27-36.32,32.75-37.76,18.23-1.49,34.73,14.94,38.28,35.79.3,1.8.76-1.82.87-.04l-1.07,4.81v-.45c0-23.38,17.22-42.15,37.89-40.55,17.59,1.36,31.81,17.76,32.91,37.94.72,13.22-4.76,23.2-12.69,31.18l-24.05,23.64c-4.07,4-7.62,8.49-10.39,13.45-5.07,9.1-8.74,19.26-11.51,29.49-2.78,10.24-5.81,17.39-7.34,26.78,5.72-19.67,9.97-45.3,22.31-56.94,16.53-15.55,51.91-43.91,80.12-21.46,16.23,12.92,22.92,42.27,7.46,62.46Z"/>
    <path class="cls-1" d="M496.73,218.49c-10.75,14.03-25.1,11.49-48.41,25-9.55,5.55-17.03,11.72-23,17.89-7.58,7.83-13.41,16.74-17.56,26.2l-15.92,42.26-9.9-40.47c-3.23-9.71-8.18-18.99-15-27.3-5.35-6.55-12.22-13.19-21.22-19.37-21.93-15.03-36.48-13.44-45.86-28.15-11.93-18.73-5.53-48.27,11.87-54.68,19.91-7.32,49.72,17.26,62.97,31.95,10.9,12.07,17.32,31.79,20.41,51.26l-.27-7.93c-1.45-25.4-12.9-49.35-32.2-66.21-.13-.12-.27-.23-.4-.35l-18.47-16.97c-6.84-7.08-11.95-17.5-11.28-29.06,1.03-17.75,13.52-32.16,28.99-33.43,16.14-1.32,30.13,16.68,33.27,35.14.27,1.59.47,3.18.57,4.76l-.13-3.99v-.39c0-20.69,15.24-37.31,33.54-35.9,15.57,1.2,28.16,15.72,29.13,33.59.64,11.7-4.21,20.54-11.23,27.61l-21.29,20.93c-3.6,3.54-6.75,7.51-9.2,11.91-4.49,8.06-7.74,17.05-10.19,26.1-2.46,9.06-4.12,18.19-5.47,26.5,5.06-17.42,12.9-34.26,23.82-44.56,14.63-13.76,46.69-36.26,65.83-27.63,16.74,7.54,20.29,37.42,6.6,55.29Z"/>
    <g id="Camada_5" data-name="Camada 5">
      <ellipse class="cls-9" cx="477.49" cy="317.97" rx="7.43" ry="7.7"/>
      <circle class="cls-9" cx="449.98" cy="343.07" r="7.02"/>
      <circle class="cls-9" cx="473.21" cy="333.63" r="3.96"/>
      <circle class="cls-9" cx="503.59" cy="299.58" r="3.96"/>
      <circle class="cls-9" cx="501.59" cy="314.17" r="6.49"/>
      <circle class="cls-9" cx="530.4" cy="259.58" r="3.7"/>
      <circle class="cls-9" cx="526.44" cy="285.75" r="5.36"/>
      <circle class="cls-9" cx="414.53" cy="362.99" r="3.32"/>
      <circle class="cls-9" cx="455.64" cy="336.95" r="3.32"/>
      <circle class="cls-9" cx="428.15" cy="364.39" r="5.36"/>
      <circle class="cls-7" cx="476.66" cy="317.24" r="7.66"/>
      <circle class="cls-7" cx="449.46" cy="341.8" r="7.02"/>
      <circle class="cls-7" cx="472.7" cy="332.35" r="3.96"/>
      <circle class="cls-7" cx="502.83" cy="298.73" r="3.96"/>
      <circle class="cls-7" cx="501.33" cy="312.99" r="6.55"/>
      <circle class="cls-7" cx="529.89" cy="258.31" r="3.7"/>
      <circle class="cls-7" cx="525.93" cy="284.48" r="5.36"/>
      <circle class="cls-7" cx="414.27" cy="362.35" r="3.32"/>
      <circle class="cls-7" cx="455.3" cy="336.31" r="3.32"/>
      <circle class="cls-7" cx="427.64" cy="363.79" r="5.36"/>
    </g>
    <g id="Camada_7" data-name="Camada 7">
      <path class="cls-4" d="M473.99,313.15c1.32-.57,3.23-1.38,4.5-.29.26.22.63.25.88,0,.22-.22.26-.66,0-.88-.78-.67-1.8-.95-2.81-.88-1.13.08-2.17.52-3.2.97-.31.13-.38.59-.22.86.19.32.54.36.86.22h0Z"/>
      <path class="cls-4" d="M499.03,309.42c.7-.18,1.38-.29,2.09-.33.31-.02.63-.03.95,0,.08,0,.09,0,.04,0,.03,0,.07.01.1.02.08.02.16.04.23.06.14.05.19.07.34.17.28.19.69.05.86-.22.18-.31.06-.67-.22-.86-.65-.43-1.46-.48-2.21-.44-.84.04-1.69.17-2.51.38-.33.08-.52.45-.44.77s.44.52.77.44h0Z"/>
      <path class="cls-4" d="M501.54,296.78c.06-.03.12-.06.17-.09.13-.06-.09.03.03-.01.11-.04.21-.08.32-.11s.22-.05.33-.07c.07-.01.06-.01-.02,0,.03,0,.06,0,.1-.01.06,0,.11,0,.17-.01.12,0,.25,0,.37,0,.06,0,.12,0,.18.01-.09-.01-.09-.01-.02,0,.06.02.06.02.01,0-.05-.02-.05-.02,0,0,.02.01.05.03.07.04-.07-.06-.08-.06-.03-.02.02.01.03.03.05.04.08.07.15.16.21.24.21.25.67.23.88,0,.25-.27.22-.62,0-.88-.17-.21-.37-.41-.61-.53-.33-.15-.7-.17-1.06-.16-.62.02-1.23.18-1.78.47-.29.15-.4.58-.22.86.19.3.54.39.86.22h0Z"/>
      <path class="cls-4" d="M524.65,281.56c.13-.04.27-.06.41-.09-.16.03.06,0,.09,0,.07,0,.14,0,.21,0,.14,0,.28,0,.42.02.03,0,.07,0,.1.01-.08-.01-.08-.01-.01,0,.07.01.14.02.2.04.14.03.27.07.4.11.07.02.13.05.2.07-.14-.06.06.03.09.04.12.06.25.13.36.2.06.04.11.08.17.12.06.04.06.04,0,0,.03.02.05.04.08.07.25.21.64.26.88,0,.21-.23.27-.66,0-.88-1.09-.91-2.56-1.26-3.93-.89-.32.08-.54.45-.44.77s.43.53.77.44h0Z"/>
      <path class="cls-4" d="M529.24,256.58s.02-.04.04-.06c.04-.05.02-.04-.04.04.03-.02.07-.07.1-.1.05-.04.03-.03-.04.03.02-.01.04-.03.06-.04.04-.03.08-.05.13-.07.06-.03.04-.02-.05.02.02,0,.05-.02.07-.02.05-.01.09-.02.14-.03.07-.01.05,0-.06,0,.03,0,.06,0,.09,0,.05,0,.1,0,.15,0,.16.01-.1-.03.03,0,.06.01.11.02.17.04s.11.03.17.05c.03,0,.05.02.08.03-.08-.04-.09-.04-.03-.01.21.11.42.22.61.37.12.09.34.1.48.06s.3-.15.37-.29c.08-.15.12-.32.06-.48s-.15-.27-.29-.37c-.5-.37-1.11-.65-1.74-.65s-1.27.3-1.57.86c-.16.29-.08.69.22.86s.69.08.86-.22h0Z"/>
      <path class="cls-4" d="M471.68,330.46c.19-.07.38-.12.57-.16.04,0,.24-.06.06-.01.04-.01.09-.01.14-.01.05,0,.09,0,.14,0,.03,0,.06,0,.1,0,.06,0,.06,0,.01,0-.05,0-.05,0,0,0,.03,0,.06.02.09.03.04.01.09.03.13.04.1.04.21.07.31.11.21.07.43.15.64.22.31.11.7-.12.77-.44.08-.35-.11-.65-.44-.77-.22-.08-.44-.15-.66-.23-.26-.09-.51-.18-.78-.21-.25-.03-.52.02-.77.06-.22.04-.43.1-.64.17-.31.11-.55.43-.44.77.1.3.44.56.77.44h0Z"/>
      <path class="cls-4" d="M454.84,334.72s.05-.01.08-.02l-.17.02c.06,0,.11,0,.17,0l-.17-.02c.23.03.45.13.66.2s.45.15.68.22c.31.1.7-.12.77-.44.08-.34-.1-.66-.44-.77-.28-.09-.56-.18-.85-.27-.35-.11-.71-.24-1.08-.13-.15.04-.29.15-.37.29s-.11.33-.06.48c.1.32.43.54.77.44h0Z"/>
      <path class="cls-4" d="M447.18,337.18c.49-.17,1-.25,1.51-.33s.98-.13,1.47-.1c.95.07,1.66.68,2.35,1.28.25.22.63.25.88,0,.23-.23.25-.66,0-.88-.9-.79-1.8-1.48-3.02-1.62-.58-.07-1.17,0-1.74.08s-1.2.18-1.77.38c-.76.26-.43,1.47.33,1.21h0Z"/>
      <path class="cls-4" d="M425.74,361.06c.61-.44,1.31-.54,2.05-.58.19-.01.4-.04.59-.01.12.02.28.1.41.17.35.18.7.36.99.63.25.23.64.24.88,0s.25-.65,0-.88c-.37-.35-.8-.6-1.25-.82-.24-.12-.49-.25-.75-.3s-.53-.04-.79-.03c-.95.05-1.96.18-2.75.76-.27.2-.41.54-.22.86.16.27.58.42.86.22h0Z"/>
      <path class="cls-4" d="M413.61,360.94c.06-.01.12-.02.19-.03.13-.02-.13.01.04,0,.12-.01.23-.03.35-.04.21-.02.43-.02.64-.02.13,0-.13-.03.03,0,.03,0,.11.05.14.04-.09-.04-.11-.04-.05-.02.02.01.04.02.07.04.02.01.08.07.1.06-.08-.06-.09-.07-.04-.03.02.02.04.03.06.05.03.03.06.05.08.08.07.07.14.15.21.23.21.25.67.23.88,0,.25-.27.23-.62,0-.88-.17-.2-.34-.37-.55-.52-.25-.18-.54-.27-.84-.31-.24-.03-.49,0-.73.01-.3.02-.61.06-.91.11-.15.02-.3.17-.37.29-.08.13-.11.33-.06.48.11.35.42.49.77.44h0Z"/>
    </g>
    <path class="cls-8" d="M570.1,213.22c-1.6,39.6-15.32,73.32-31.63,97.73-22.04-99.66-98.52-173.57-181.2-181.4-60.93-5.76-110.72,24.98-136.1,44.78,15.74-85.36,92.02-148.88,180.45-145.4.54.02,1.07.04,1.61.08,3.45.15,6.88.43,10.28.79,91.22,9.8,160.4,89.5,156.6,183.42Z"/>
  </g>
</svg>