<?xml version="1.0" encoding="UTF-8"?>
<svg id="Camada_2" data-name="Camada 2" xmlns="http://www.w3.org/2000/svg" viewBox="0 0 876.92 810.17">
  <defs>
    <style>
      .cls-1 {
        fill: #4f2700;
        opacity: .5;
      }

      .cls-1, .cls-2, .cls-3, .cls-4, .cls-5, .cls-6, .cls-7, .cls-8, .cls-9, .cls-10, .cls-11, .cls-12 {
        stroke-width: 0px;
      }

      .cls-2 {
        fill: #f7f7f7;
      }

      .cls-3 {
        fill: #562b00;
      }

      .cls-4 {
        fill: #e0ddce;
      }

      .cls-5 {
        fill: #e8e8e8;
      }

      .cls-6 {
        fill: #bc8646;
      }

      .cls-7, .cls-11 {
        fill: #1d1d1b;
      }

      .cls-8 {
        fill: #f7ddc6;
      }

      .cls-9 {
        fill: #fff;
      }

      .cls-10 {
        fill: #d1d1d1;
      }

      .cls-11 {
        opacity: .43;
      }

      .cls-12 {
        fill: #efcaa3;
      }
    </style>
  </defs>
  <g id="Camada_13" data-name="Camada 13">
    <path class="cls-7" d="M673.35,666.31c-10.68,7.19-27.01,11.11-40.7,13.81-3.47.69-6.97,1.17-10.5,1.45l-4.2.34,79.83-130.04,5.23,8.28c5.92,9.37,9.91,19.87,11.25,30.87,1.85,15.2-1.1,30.38-9.92,43.84-8.28,12.63-18.85,23.28-30.99,31.45Z"/>
    <path class="cls-11" d="M807.62,567.23c-33.48,62.88-85.26,114.54-148.25,147.84l-30.25,13.81c-15.59,8.17-32.73,13.89-56.94,15.8l-10.76.83c-12.49,21.55-24.98,43.11-37.48,64.66H0l163.27-275c-16.82-41.36-26.09-86.6-26.09-134,0-77.44,24.73-149.1,66.72-207.53.62-.86,1.24-1.72,1.87-2.57-26.14,49.05-41.12,104.93-41.58,164.27-.01.61-.01,1.22-.01,1.83v1c0,46.83,9.05,91.56,25.49,132.52l.24-.4c52.72,130.67,180.73,222.88,330.27,222.88,2.22,0,4.43-.02,6.64-.06,1.1-.02,2.21-.05,3.31-.08,1.08-.03,2.16-.06,3.24-.1.07,0,.15-.01.22-.01,1.05-.04,2.09-.08,3.14-.13,1.38-.06,2.75-.13,4.12-.21.82-.05,1.63-.1,2.45-.15.77-.05,1.53-.1,2.29-.15.83-.06,1.65-.12,2.48-.19,1.15-.09,2.3-.18,3.44-.28.9-.08,1.79-.16,2.69-.25,1.02-.09,2.03-.19,3.05-.3,5.1-.52,10.16-1.16,15.2-1.9,1.98-.29,3.96-.6,5.93-.93,3.03-.49,6.03-1.03,9.03-1.6.96-.19,1.91-.37,2.86-.56.99-.2,1.97-.4,2.96-.61.92-.19,1.85-.38,2.77-.58,2.02-.44,4.03-.89,6.03-1.37,1.94-.46,3.88-.93,5.82-1.42.97-.24,1.93-.49,2.9-.75,7.71-2.02,15.31-4.29,22.81-6.81.94-.31,1.88-.63,2.81-.96.8-.27,1.6-.55,2.4-.83,3.12-1.11,6.22-2.25,9.3-3.44.68-.26,1.36-.52,2.04-.79,5.54-2.17,11.01-4.48,16.41-6.92,2.68-1.21,5.34-2.45,7.98-3.72,4.56-2.2,9.07-4.49,13.51-6.88.71-.37,1.42-.75,2.12-1.14.52-.28,1.03-.56,1.54-.84.8-.44,1.6-.88,2.39-1.33.99-.55,1.98-1.11,2.96-1.68.63-.35,1.25-.71,1.87-1.08,1.31-.76,2.62-1.53,3.92-2.31,4.06-5.05,7.83-8.8,9.37-7.64.41.31.78.58,1.11.83.07.06.14.11.2.15l.03.03s.04-.06.06-.09c36.51-23.66,68.4-53.83,94.04-88.86Z"/>
    <path class="cls-11" d="M849.18,400.17c0,60.38-15.03,117.24-41.56,167.06-25.64,35.03-57.53,65.2-94.04,88.86.79-1.26,1.55-2.53,2.28-3.8,14.42-25.08,19.28-52.77,16.19-80.54-2.13-19.12-8.17-37.56-17.35-54.41h0c-.09-.17-.18-.33-.27-.49h0c-1.03-1.88-2.1-3.73-3.21-5.56-.55-.92-1.11-1.84-1.69-2.75l-5.89-9.31c14.02-24.21,28.05-48.41,42.08-72.62l-24.4-4.11-5.27-.89-.35-.06-16.08-2.71-6.27-1.05-265.34-44.71-98.77-16.64-.43-.08-15.05-2.53h-.06s-5.43-.93-5.43-.93l-28.16-4.74-5.29-.89-.33-.06-84.73,142.71c-16.5-41.02-25.58-85.83-25.58-132.75,0-60.39,15.04-117.27,41.59-167.1C270.53,101.61,375.15,44.17,493.18,44.17c196.61,0,356,159.39,356,356Z"/>
  </g>
  <g id="Camada_10" data-name="Camada 10">
    <path class="cls-5" d="M876.18,357.17c0,78.56-25.45,151.18-68.56,210.06-25.64,35.03-57.53,65.2-94.04,88.86-.22.15-.44.3-.66.43-55.55,35.85-121.72,56.65-192.74,56.65-149.54,0-277.55-92.21-330.27-222.88-.05-.12-.1-.24-.15-.37-16.5-41.02-25.58-85.83-25.58-132.75,0-60.39,15.04-117.27,41.59-167.1C265.61,77.68,383.96,1.17,520.18,1.17c196.61,0,356,159.39,356,356Z"/>
    <path class="cls-10" d="M818.18,552.17c28.42-52.07,44.68-112.18,43.72-175.89-2.93-195.2-163.86-352.18-359.07-350.51-123.21,1.05-231.5,64.71-294.6,160.72C273.08,67.61,403.73-10.19,551.23,2c173.77,14.36,311.95,153.96,324.72,327.85,6.04,82.27-16.37,159.33-57.77,222.32Z"/>
  </g>
  <g id="Camada_12" data-name="Camada 12">
    <path class="cls-11" d="M729.61,527.3h0c-.05-.15-.1-.29-.16-.42-.92-2.44-1.91-4.85-2.96-7.24h0c-3.12-7.12-6.79-13.99-10.96-20.59l-5.89-9.31c14.02-24.21,28.05-48.41,42.08-72.62l-26.91-4.53-5.22-.88-.36-.06-15.7-2.65-6.38-1.07-267.22-45.03-100.92-17.01-.45-.07-14.86-2.51h-.1s-5.37-.92-5.37-.92l-27.74-4.67-.26.44v.02l-5.41,9.09-84.91,143.02c52.72,130.67,180.73,222.88,330.27,222.88,71.02,0,137.19-20.8,192.74-56.65,1.01-1.4,1.98-2.81,2.94-4.23.68-.98,1.34-1.97,1.99-2.97,17.52-26.75,23.56-56.86,20.2-87.06-1.34-12-4.21-23.72-8.44-34.96ZM714.75,601.84v.02c-1.47,8.17-4.55,16.1-9.41,23.51-8.28,12.63-18.85,23.28-30.99,31.45-10.68,7.19-27.01,11.11-40.7,13.81-3.18.63-6.38,1.09-9.61,1.37h-.01c-.3.03-.58.06-.88.08l-4.2.34,79.83-130.04,5.23,8.28c5.92,9.37,9.91,19.87,11.25,30.87.83,6.83.69,13.64-.51,20.31Z"/>
  </g>
  <g id="Camada_11" data-name="Camada 11">
    <path class="cls-9" d="M194.68,216.67C249.36,75.97,386.35-8.24,536.23.64c207.69,12.13,358.19,182.37,337.78,390.56-4.91,47.73-19.08,94.34-41.33,136.47,30.01-64.68,42.79-136.96,34.25-207.64-13.74-118.98-86.29-224.04-195.71-274.17-181.55-84.89-394.22-15.36-476.54,170.81h0Z"/>
  </g>
  <g id="Camada_1-2" data-name="Camada 1">
    <circle class="cls-3" cx="521.68" cy="346.67" r="213.5"/>
    <path class="cls-2" d="M802.98,506.54c-1.7-8.56-6.68-16.47-14.51-21.7l-45.49-30.4c-1.83-1.22-2.47-3.6-1.54-5.58,50.09-107.01,15.49-237.58-86.46-304.58-111.61-73.36-260.42-42.96-334.38,68.25-73.88,111.08-43.92,261.06,67.05,335.22,99.77,66.67,231.12,49.39,310.66-35.28,2.03-2.16,5.32-2.53,7.78-.88l44.83,29.96c15.56,10.4,36.62,6.2,46.99-9.38,5.22-7.84,6.77-17.06,5.06-25.62ZM680.34,481.67c-.48.58-.97,1.15-1.47,1.72-.51.6-1.02,1.19-1.56,1.77-.53.6-1.07,1.2-1.61,1.79-68.21,75.28-182.91,91.36-269.72,33.35-95.52-63.83-121.07-193.18-57.09-288.92,4.04-6.04,8.35-11.81,12.89-17.29.64-.78,1.3-1.56,1.96-2.34.51-.62,1.03-1.22,1.56-1.83.49-.55.98-1.11,1.47-1.66.54-.6,1.07-1.19,1.61-1.79,68.28-74.87,182.67-90.76,269.3-32.87,95.52,63.83,121.07,193.18,57.09,288.92-3.92,5.87-8.09,11.48-12.47,16.81-.65.78-1.3,1.56-1.96,2.34Z"/>
    <path class="cls-6" d="M534.93,153.94c-3.74-.25-7.51-.4-11.3-.42-.59-.02-1.18-.02-1.77-.02-106.52,0-192.86,86.56-192.86,193.33,0,64.51,32.38,116.07,76.17,149.68,1.09.84,2.18,1.65,3.28,2.46,34.5,25.46,75.6,39.96,113.41,41.18,27.69.89,52.08-5.4,71.64-13.47.49-.21.98-.42,1.47-.62,20.26-8.56,35.18-18.92,43.01-24.87,3.81-2.88,76.73-61.44,76.73-154.36,0-102.37-79.36-186.14-179.78-192.89ZM535.08,161.57l8.4.31s.04,0,.06.01c92.39,10.59,164.14,89.05,164.14,184.28,0,88.86-62.48,163.13-145.91,181.26-3.76.82-7.58,1.36-11.42,1.64-16.22,1.19-32.58.7-48.25-3.51-9.23-2.48-18.27-5.65-27-9.55-64.75-28.88-79.15-53.29-79.48-70.8-.54-28.2,35.25-46.08,35-94-.07-13.7-3.07-27.28-5-36-7.73-34.98-18.24-43.65-19-60-.67-14.45,6.24-35.34,41.89-62.25h0c24.79-16.32,52.94-26.85,82.35-30.82l4.22-.57Z"/>
    <path class="cls-10" d="M793.23,537.4c-11.21,10.87-28.84,12.83-42.34,3.81l-44.83-29.96c-.43-.29-.88-.51-1.35-.68,5-.12,9.95,1.29,14.18,4.07l26.48,17.4,11.6,6.71c4.85,2.81,10.35,4.29,15.95,4.29,2.1,0,4.19-.33,6.19-.99l14.12-4.65Z"/>
  </g>
  <g id="Camada_3" data-name="Camada 3">
    <g>
      <circle class="cls-12" cx="366.88" cy="271.4" r="13.5"/>
      <circle class="cls-12" cx="386.38" cy="331.9" r="30"/>
      <circle class="cls-12" cx="391.88" cy="403.4" r="13.5"/>
      <circle class="cls-12" cx="345.38" cy="361.9" r="8"/>
      <circle class="cls-12" cx="380.38" cy="442.56" r="6.83"/>
      <circle class="cls-12" cx="394.6" cy="479.6" r="3.88"/>
      <circle class="cls-12" cx="359.17" cy="417.08" r="10.18"/>
      <circle class="cls-12" cx="396.17" cy="232.38" r="10.18"/>
      <circle class="cls-12" cx="410.17" cy="199.94" r="4.12"/>
      <circle class="cls-12" cx="443.17" cy="187.79" r="4.12"/>
      <circle class="cls-12" cx="399.17" cy="287.36" r="4.12"/>
      <circle class="cls-12" cx="378.1" cy="424.4" r="3.88"/>
    </g>
    <circle class="cls-3" cx="367.68" cy="269.67" r="13.5"/>
    <circle class="cls-3" cx="387.18" cy="330.17" r="30"/>
    <circle class="cls-3" cx="392.68" cy="401.67" r="13.5"/>
    <circle class="cls-3" cx="346.18" cy="360.17" r="8"/>
    <circle class="cls-3" cx="381.18" cy="440.82" r="6.83"/>
    <circle class="cls-3" cx="359.97" cy="415.34" r="10.18"/>
    <circle class="cls-3" cx="396.97" cy="230.65" r="10.18"/>
    <circle class="cls-3" cx="410.97" cy="198.21" r="4.12"/>
    <circle class="cls-3" cx="443.97" cy="186.06" r="4.12"/>
    <circle class="cls-3" cx="399.97" cy="285.63" r="4.12"/>
    <circle class="cls-3" cx="378.89" cy="422.67" r="3.88"/>
    <circle class="cls-3" cx="395.18" cy="478.24" r="3.88"/>
  </g>
  <g id="Camada_7" data-name="Camada 7">
    <path class="cls-8" d="M384.35,306.18c2.65-1.8,8.05-2.1,13.34.17,6.53,2.81,12.62,9.44,11.23,13.04-.57,1.46-2.43,2.57-3.63,2.2-1.48-.45-1.08-2.88-2.7-5.81-2.23-4.03-6.43-5.64-6.82-5.79-3.17-1.17-8.06-1.34-9.95-1.4-1.02-.04-2.73-.06-2.91-.71-.17-.61,1.07-1.45,1.45-1.71Z"/>
    <path class="cls-8" d="M390.08,391.94c1.35-.91,4.08-1.07,6.76.09,3.31,1.43,6.4,4.79,5.69,6.61-.29.74-1.23,1.3-1.84,1.12-.75-.23-.55-1.46-1.37-2.94-1.13-2.04-3.26-2.86-3.46-2.93-1.61-.59-4.09-.68-5.05-.71-.52-.02-1.38-.03-1.48-.36-.09-.31.54-.73.73-.86Z"/>
    <path class="cls-8" d="M360.87,407.48c1.05-.37,2.89.02,4.46,1.25,1.94,1.53,3.39,4.29,2.6,5.38-.32.44-1.04.64-1.41.41-.46-.28-.1-1.06-.39-2.19-.39-1.55-1.65-2.47-1.77-2.55-.96-.67-2.58-1.17-3.21-1.36-.34-.1-.91-.26-.91-.5,0-.22.49-.39.64-.44Z"/>
    <path class="cls-8" d="M380.83,435.72c.77-.27,2.13.01,3.28.92,1.43,1.12,2.49,3.16,1.91,3.96-.24.32-.77.47-1.04.3-.34-.21-.08-.78-.28-1.61-.29-1.14-1.22-1.82-1.3-1.88-.71-.5-1.9-.86-2.37-1-.25-.08-.67-.2-.67-.37,0-.16.36-.29.47-.33Z"/>
    <path class="cls-8" d="M346.72,354.22c.77-.27,2.13.01,3.28.92,1.43,1.12,2.49,3.16,1.91,3.96-.24.32-.77.47-1.04.3-.34-.21-.08-.78-.28-1.61-.29-1.14-1.22-1.82-1.3-1.88-.71-.5-1.9-.86-2.37-1-.25-.08-.67-.2-.67-.37,0-.16.36-.29.47-.33Z"/>
    <path class="cls-8" d="M397.66,223c1.09-.38,2.99.02,4.62,1.3,2.01,1.58,3.51,4.45,2.69,5.57-.33.46-1.08.67-1.46.43-.47-.3-.11-1.1-.4-2.27-.4-1.61-1.71-2.56-1.83-2.64-.99-.7-2.68-1.21-3.33-1.41-.35-.11-.94-.27-.95-.52,0-.23.51-.4.66-.46Z"/>
    <path class="cls-8" d="M369.51,259.41c1.35-.58,3.64-.21,5.52,1.35,2.32,1.93,3.93,5.58,2.84,7.12-.44.63-1.37.96-1.81.68-.55-.35-.05-1.44-.31-2.95-.36-2.08-1.89-3.23-2.03-3.33-1.15-.84-3.16-1.39-3.94-1.6-.42-.11-1.13-.29-1.11-.61.01-.3.65-.57.84-.65Z"/>
    <path class="cls-8" d="M410.79,195.37c.53-.17,1.47.03,2.27.66,1,.77,1.76,2.16,1.36,2.69-.16.22-.52.31-.71.19-.23-.15-.06-.53-.21-1.09-.21-.77-.86-1.24-.92-1.28-.49-.34-1.32-.6-1.64-.7-.17-.05-.46-.14-.47-.26,0-.11.24-.19.32-.21Z"/>
    <path class="cls-8" d="M443.57,183.26c.53-.17,1.47.03,2.27.66,1,.77,1.76,2.16,1.36,2.69-.16.22-.52.31-.71.19-.23-.15-.06-.53-.21-1.09-.21-.77-.86-1.24-.92-1.28-.49-.34-1.32-.6-1.64-.7-.17-.05-.46-.14-.47-.26,0-.11.24-.19.32-.21Z"/>
    <path class="cls-8" d="M399.94,282.44c.55-.16,1.52.06,2.37.71,1.05.8,1.86,2.22,1.47,2.75-.16.21-.54.3-.73.18-.24-.15-.07-.54-.24-1.1-.23-.78-.91-1.27-.98-1.31-.52-.36-1.38-.63-1.71-.74-.18-.06-.48-.15-.49-.27,0-.11.25-.19.33-.21Z"/>
    <path class="cls-8" d="M378.67,419.35c.45-.15,1.23.03,1.91.55.84.65,1.48,1.82,1.15,2.26-.13.18-.44.26-.6.16-.2-.12-.05-.44-.18-.92-.18-.65-.72-1.04-.77-1.08-.41-.29-1.11-.51-1.38-.59-.14-.05-.39-.12-.39-.22,0-.09.21-.16.27-.18Z"/>
    <path class="cls-8" d="M394.86,475.33c.5-.25,1.33-.15,1.98.42.81.7,1.33,2.09.91,2.7-.17.25-.51.4-.67.29-.19-.13,0-.56-.06-1.14-.1-.8-.63-1.21-.68-1.25-.4-.31-1.12-.48-1.4-.55-.15-.04-.4-.09-.39-.22.01-.12.25-.23.32-.27Z"/>
  </g>
  <g id="Camada_4" data-name="Camada 4">
    <path class="cls-4" d="M521.57,138.04c-104.4,0-190.83,77.1-205.72,177.59-.11.79-.23,1.58-.34,2.38-.1.73-.2,1.47-.3,2.2-.1.79-.19,1.59-.28,2.39-.12,1.01-.23,2.02-.33,3.03-.68,6.88-1.03,13.85-1.03,20.91,0,115.15,93.12,208.5,208,208.5,104.19,0,190.47-76.77,205.64-176.96.12-.79.23-1.59.34-2.38.11-.78.21-1.56.31-2.34.1-.75.19-1.5.27-2.25.12-1.01.22-2.02.33-3.03.73-7.08,1.11-14.27,1.11-21.54,0-115.15-93.12-208.5-208-208.5ZM637.98,501.19c-7.83,5.95-22.75,16.31-43.01,24.87-.49.2-.98.41-1.47.62-19.56,8.07-43.95,14.36-71.64,13.47-37.81-1.22-78.91-15.72-113.41-41.18-1.1-.81-2.19-1.62-3.28-2.46-43.79-33.61-76.17-85.17-76.17-149.68,0-106.77,86.34-193.33,192.86-193.33.59,0,1.18,0,1.77.02,3.79.02,7.56.17,11.3.42,100.42,6.75,179.78,90.52,179.78,192.89,0,92.92-72.92,151.48-76.73,154.36Z"/>
    <path class="cls-6" d="M329,346.83c0,64.51,32.38,116.07,76.17,149.68-44.02-33.59-76.62-85.28-76.62-150.01,0-106.77,86.34-193.33,192.86-193.33.52,0,1.28.12,2.22.35-.59-.02-1.18-.02-1.77-.02-106.52,0-192.86,86.56-192.86,193.33Z"/>
    <path class="cls-1" d="M730.11,356.85c-1.86,46.63-20.4,84.57-40.14,112.13-26.24-117.37-114.29-201.56-212.36-210.86-72.26-6.85-130.75,28.78-160.83,52.07,18.59-100.5,108.46-174.7,213.33-170.51.64.03,1.27.05,1.91.1,4.09.19,8.16.51,12.19.94,108.19,11.62,190.31,105.54,185.9,216.13Z"/>
  </g>
</svg>